<svg width="30" height="30" viewBox="0 0 30 30" fill="none" xmlns="http://www.w3.org/2000/svg">
<path d="M0 15C0 6.71573 6.71573 0 15 0C23.2843 0 30 6.71573 30 15C30 23.2843 23.2843 30 15 30C6.71573 30 0 23.2843 0 15Z" fill="#1E4E8B"/>
<path d="M17.3566 16.4754L19.44 18.1421H23.19M23.19 18.1421V15.2254M23.19 18.1421V21.0587M7.77329 19.3921L17.3566 8.55873M12.5681 21.5337L20.1476 12.6645C20.7456 11.9647 20.6631 10.9127 19.9634 10.3147L16.1623 7.06633C15.4625 6.46832 14.4105 6.55081 13.8125 7.25057L6.23298 16.1198C5.63498 16.8195 5.71747 17.8716 6.41723 18.4696L10.2183 21.7179C10.9181 22.3159 11.9701 22.2334 12.5681 21.5337ZM6.66861 21.0051L7.78359 21.9758C8.1307 22.278 8.65708 22.2416 8.95929 21.8945C9.2615 21.5474 9.22509 21.021 8.87797 20.7188L7.76299 19.7481C7.41587 19.4459 6.88949 19.4823 6.58729 19.8294C6.28508 20.1765 6.32149 20.7029 6.66861 21.0051Z" stroke="white" stroke-width="1.2" stroke-linecap="round" stroke-linejoin="round"/>
</svg>
